<svg width="152" height="60" viewBox="0 0 152 60" fill="none" xmlns="http://www.w3.org/2000/svg">
<g clip-path="url(#clip0_2_110)">
<path d="M152 41.9241H79.6162V60H152V41.9241Z" fill="#FAC316"/>
<path d="M13.7722 36.1025H0V0.348633H13.7722C25.3469 0.348633 31.0385 7.07684 31.0385 18.2235C31.0385 29.3702 25.3469 36.1025 13.7722 36.1025ZM14.0209 4.7712H5.54069V31.684H14.025C21.6613 31.684 25.5019 27.1138 25.5019 18.2276C25.5019 9.34145 21.6572 4.7712 14.0209 4.7712Z" fill="white"/>
<path d="M34.5325 2.86359C34.5325 1.25538 35.6292 0 37.6759 0C39.6736 0 40.8193 1.25538 40.8193 2.86359C40.8193 4.47179 39.6695 5.67385 37.6759 5.67385C35.6292 5.67385 34.5325 4.46769 34.5325 2.86359Z" fill="#FAC316"/>
<path d="M40.3218 10.1907H35.0339V36.0984H40.3218V10.1907Z" fill="white"/>
<path d="M45.3123 36.1026V10.1908H50.3515V16.1641C51.6969 11.5939 53.9923 9.88721 57.735 9.88721C58.4322 9.88721 59.431 10.039 60.0793 10.1867V14.8554L57.5352 14.757C53.344 14.757 50.6002 18.0185 50.6002 23.7949V36.1026H45.3123Z" fill="white"/>
<path d="M80.2441 36.1025V19.9343C80.2441 16.0163 78.8457 14.0102 75.2049 14.0102C71.3644 14.0102 68.8692 16.923 68.8692 21.6409V36.1025H63.5813V0.348633H68.8692V14.3056C70.2676 11.4953 72.7098 9.68607 76.8031 9.68607C82.6904 9.68607 85.5361 12.6974 85.5361 18.9743V36.1025H80.2441Z" fill="white"/>
<path d="M89.5276 28.7712C89.5276 24.9065 91.8719 21.8419 98.2606 21.2881L103.251 20.886C106.296 20.5865 107.193 19.8809 107.193 18.2235C107.193 15.2614 105.497 13.5055 101.755 13.5055C98.2606 13.5055 96.3648 15.0112 96.1161 18.2235H90.926C90.926 13.0009 94.1183 9.68604 101.706 9.68604C109.24 9.68604 112.485 13.0009 112.485 18.2235V29.4686C112.485 32.9845 112.787 35.2409 113.284 36.0942H108.543C107.744 35.0891 107.446 34.0348 107.446 31.6265C106.048 34.9414 103.206 36.5989 98.7621 36.5989C92.7688 36.603 89.5276 33.5917 89.5276 28.7712ZM107.189 25.1035V22.8963C106.639 23.5978 105.245 23.9999 103.247 24.1517L99.9526 24.4512C96.2588 24.7548 94.8114 26.3096 94.8114 28.4183C94.8114 31.0809 96.4096 32.9394 100.201 32.9394C104.747 32.9394 107.189 29.3742 107.189 25.1035Z" fill="white"/>
<path d="M146.912 36.1025V19.7825C146.912 15.8645 145.664 14.0102 142.721 14.0102C139.626 14.0102 137.233 16.7712 137.233 21.4933V36.1025H132.145V19.7825C132.145 15.8645 130.897 14.0102 128.002 14.0102C124.908 14.0102 122.564 16.7712 122.564 21.4933V36.1025H117.476V10.1907H122.515V14.7117C123.713 11.7004 126.107 9.69019 129.65 9.69019C133.49 9.69019 135.786 11.4461 136.735 14.9127C138.032 11.5979 140.727 9.69019 144.27 9.69019C149.46 9.69019 152.004 12.7015 152.004 18.9784V36.1025H146.912Z" fill="white"/>
<path d="M85.5198 50.5437C85.5198 47.6268 87.0568 45.6206 90.0371 45.6206C92.6179 45.6206 94.2079 47.1796 94.2079 49.0914H93.152C92.9767 47.6514 91.9493 46.5765 90.0371 46.5765C87.8192 46.5765 86.6695 48.0165 86.6695 50.5437C86.6695 53.0709 87.8192 54.5109 90.0371 54.5109C91.9207 54.5109 92.9767 53.4893 93.152 51.9139H94.2079C94.2079 53.8627 92.6709 55.4627 90.0371 55.4627C87.0527 55.4668 85.5198 53.4647 85.5198 50.5437Z" fill="#003764"/>
<path d="M95.0886 53.3704C95.0886 52.3488 95.7287 51.5571 97.4125 51.4053L98.6805 51.2986C99.6141 51.2165 99.8832 51.0155 99.8832 50.5068C99.8832 49.6206 99.3899 49.0668 98.2402 49.0668C97.172 49.0668 96.6094 49.5263 96.5278 50.5068H95.4596C95.4596 49.1365 96.3036 48.2627 98.2279 48.2627C100.152 48.2627 100.992 49.1365 100.992 50.5068V53.5591C100.992 54.4986 101.074 55.1058 101.204 55.3355H100.23C100.018 55.0401 99.9362 54.7571 99.9362 54.0186C99.5611 54.9868 98.7457 55.4709 97.5308 55.4709C95.9693 55.4668 95.0886 54.6586 95.0886 53.3704ZM99.8832 52.3078V51.6227C99.7242 51.836 99.2961 51.9714 98.6805 52.0247L97.7305 52.1068C96.6338 52.1889 96.1935 52.6565 96.1935 53.3047C96.1935 54.0965 96.6746 54.6914 97.8243 54.6914C99.1901 54.6873 99.8832 53.6001 99.8832 52.3078Z" fill="#003764"/>
<path d="M102.411 55.3314V48.394H103.467V50.035C103.842 48.8248 104.47 48.3284 105.497 48.3284C105.685 48.3284 105.925 48.3571 106.125 48.394V49.3622L105.456 49.3376C104.282 49.3376 103.52 50.2771 103.52 51.9879V55.3355H102.411V55.3314Z" fill="#003764"/>
<path d="M116.016 50.8021C117.019 51.0564 117.565 51.758 117.565 52.8205V54.3672C117.565 54.7692 117.618 55.1057 117.7 55.3354H116.632C116.513 55.081 116.42 54.7857 116.42 54.3672V52.8492C116.42 51.5857 115.616 51.2205 114.524 51.2205H111.678V55.3354H110.528V45.76H114.764C116.66 45.76 117.704 46.7815 117.704 48.4226C117.7 49.6574 117.125 50.478 116.016 50.8021ZM114.638 46.6462H111.67V50.3303H114.638C116 50.3303 116.55 49.5754 116.55 48.4882C116.55 47.401 116.004 46.6462 114.638 46.6462Z" fill="#003764"/>
<path d="M118.715 51.8647C118.715 49.7273 119.812 48.2585 121.936 48.2585C124.072 48.2585 125.169 49.7642 125.169 51.7006C125.169 51.8073 125.169 51.9303 125.14 52.037H119.824C119.853 53.9201 120.733 54.6873 122.017 54.6873C123.126 54.6873 123.795 54.0965 124.036 53.2226H125.026C124.704 54.6093 123.758 55.4667 122.017 55.4667C119.893 55.4667 118.715 54.0965 118.715 51.8647ZM119.824 51.2862H124.06C123.913 49.7806 123.126 49.0421 121.936 49.0421C120.745 49.0421 119.971 49.7806 119.824 51.2862Z" fill="#003764"/>
<path d="M130.852 55.3314V50.9211C130.852 49.7642 130.436 49.1611 129.328 49.1611C128.178 49.1611 127.432 50.0637 127.432 51.4585V55.3314H126.323V48.3939H127.379V49.6698C127.766 48.8083 128.475 48.2585 129.637 48.2585C131.215 48.2585 131.961 49.0668 131.961 50.7447V55.3314H130.852Z" fill="#003764"/>
<path d="M133.845 53.7191V49.2022H132.671V48.394H133.845V46.2976H134.954V48.394H136.609V49.2022H134.954V53.7479C134.954 54.4207 135.182 54.5807 135.887 54.5807L136.609 54.552V55.3315C136.34 55.3602 135.9 55.3971 135.659 55.3971C134.338 55.4012 133.845 55.0115 133.845 53.7191Z" fill="#003764"/>
<path d="M137.4 53.3704C137.4 52.3488 138.04 51.5571 139.724 51.4053L140.992 51.2986C141.926 51.2165 142.195 51.0155 142.195 50.5068C142.195 49.6206 141.701 49.0668 140.552 49.0668C139.484 49.0668 138.921 49.5263 138.839 50.5068H137.771C137.771 49.1365 138.615 48.2627 140.539 48.2627C142.464 48.2627 143.304 49.1365 143.304 50.5068V53.5591C143.304 54.4986 143.385 55.1058 143.516 55.3355H142.541C142.329 55.0401 142.248 54.7571 142.248 54.0186C141.873 54.9868 141.057 55.4709 139.842 55.4709C138.285 55.4668 137.4 54.6586 137.4 53.3704ZM142.199 52.3078V51.6227C142.04 51.836 141.612 51.9714 140.996 52.0247L140.046 52.1068C138.949 52.1889 138.509 52.6565 138.509 53.3047C138.509 54.0965 138.99 54.6914 140.14 54.6914C141.502 54.6873 142.199 53.6001 142.199 52.3078Z" fill="#003764"/>
<path d="M144.727 55.3315V45.7561H145.836V55.3315H144.727Z" fill="#003764"/>
</g>
<defs>
<clipPath id="clip0_2_110">
<rect width="152" height="60" fill="white"/>
</clipPath>
</defs>
</svg>
