<svg width="193" height="45" viewBox="0 0 193 45" fill="none" xmlns="http://www.w3.org/2000/svg">
<g clip-path="url(#clip0_2_155)">
<path fill-rule="evenodd" clip-rule="evenodd" d="M104.724 5.08862L96.2319 44.9613L101.813 44.969L110.305 5.08862H104.724Z" fill="#FAC316"/>
<path fill-rule="evenodd" clip-rule="evenodd" d="M97.6758 5.08862L89.1836 44.9613L94.7644 44.969L103.257 5.08862H97.6758Z" fill="#FAC316"/>
<path fill-rule="evenodd" clip-rule="evenodd" d="M90.6274 5.08862L82.1353 44.9613L87.716 44.969L96.2082 5.08862H90.6274Z" fill="#FAC316"/>
<path fill-rule="evenodd" clip-rule="evenodd" d="M9.57712 0L2.12305 35.0241L83.0876 35.0318L90.5416 0H9.57712Z" fill="#FAC316"/>
<path fill-rule="evenodd" clip-rule="evenodd" d="M112.436 0L105.005 35.0628L184.635 35.0706L192.073 0H112.436Z" fill="#FAC316"/>
<path fill-rule="evenodd" clip-rule="evenodd" d="M1.99816 36.155L0 44.9537L80.9645 44.9614L82.9627 36.155H1.99816Z" fill="#003764"/>
<path fill-rule="evenodd" clip-rule="evenodd" d="M104.864 36.155L102.882 44.9924L182.512 45.0001L184.494 36.155H104.864Z" fill="#003764"/>
<path d="M116.736 44.4811C116.401 44.6515 115.644 44.8296 114.652 44.8296C111.85 44.8296 110.406 43.1024 110.406 40.8098C110.406 38.068 112.381 36.5344 114.832 36.5344C115.784 36.5344 116.502 36.7281 116.83 36.8907L116.455 38.3313C116.081 38.1764 115.566 38.037 114.918 38.037C113.466 38.037 112.334 38.9045 112.334 40.7014C112.334 42.3124 113.294 43.327 114.933 43.327C115.488 43.327 116.096 43.2108 116.463 43.0637L116.736 44.4811Z" fill="white"/>
<path d="M119.944 42.6454L119.367 44.7134H117.462L119.944 36.6738H122.349L124.862 44.7134H122.887L122.263 42.6454H119.944ZM122.005 41.2823L121.498 39.5783C121.357 39.0981 121.209 38.5017 121.092 38.0292H121.068C120.951 38.5095 120.826 39.1136 120.694 39.5783L120.21 41.2823H122.005Z" fill="white"/>
<path d="M125.947 36.7746C126.532 36.6817 127.414 36.6042 128.39 36.6042C129.592 36.6042 130.435 36.7824 131.012 37.2394C131.496 37.6189 131.754 38.1843 131.754 38.9201C131.754 39.9502 131.02 40.6473 130.326 40.9029V40.9416C130.888 41.1662 131.2 41.7084 131.41 42.4442C131.66 43.3504 131.918 44.4037 132.074 44.7135H130.201C130.068 44.4889 129.873 43.8306 129.639 42.8392C129.42 41.8401 129.077 41.5612 128.327 41.5535H127.773V44.7135H125.955V36.7746H125.947ZM127.765 40.2368H128.491C129.405 40.2368 129.943 39.7798 129.943 39.0827C129.943 38.3392 129.436 37.9752 128.601 37.9597C128.156 37.9597 127.906 37.9984 127.773 38.0216V40.2368H127.765Z" fill="white"/>
<path d="M135.508 36.7746C136.093 36.6817 136.975 36.6042 137.951 36.6042C139.153 36.6042 139.996 36.7824 140.573 37.2394C141.057 37.6189 141.315 38.1843 141.315 38.9201C141.315 39.9502 140.581 40.6473 139.887 40.9029V40.9416C140.449 41.1662 140.761 41.7084 140.972 42.4442C141.221 43.3504 141.479 44.4037 141.635 44.7135H139.762C139.629 44.4889 139.434 43.8306 139.2 42.8392C138.981 41.8401 138.638 41.5612 137.888 41.5535H137.334V44.7135H135.516V36.7746H135.508ZM137.319 40.2368H138.037C138.95 40.2368 139.489 39.7798 139.489 39.0827C139.489 38.3392 138.981 37.9752 138.146 37.9597C137.701 37.9597 137.451 37.9984 137.319 38.0216V40.2368Z" fill="white"/>
<path d="M147.458 41.3054H144.476V43.2185H147.809V44.7133H142.634V36.666H147.637V38.1609H144.476V39.8338H147.458V41.3054Z" fill="white"/>
<path d="M149.058 44.7133V36.666H151.197L152.883 39.617C153.367 40.4612 153.843 41.4681 154.21 42.3743H154.249C154.132 41.3132 154.093 40.2288 154.093 39.0206V36.6738H155.778V44.7133H153.851L152.118 41.6075C151.634 40.7478 151.111 39.7099 150.713 38.765L150.674 38.7805C150.721 39.8416 150.744 40.9801 150.744 42.2891V44.7133H149.058Z" fill="white"/>
<path d="M158.916 38.1918H156.738V36.666H162.975V38.1918H160.758V44.7133H158.916V38.1918Z" fill="white"/>
<path d="M164.966 42.6454L164.388 44.7134H162.491L164.966 36.6738H167.37L169.883 44.7134H167.908L167.284 42.6454H164.966ZM167.026 41.2823L166.519 39.5783C166.378 39.0981 166.23 38.5017 166.113 38.0292H166.089C165.972 38.5095 165.847 39.1136 165.715 39.5783L165.231 41.2823H167.026Z" fill="white"/>
<path d="M170.968 36.666H172.81V43.1798H176.033V44.7133H170.968V36.666Z" fill="white"/>
<path d="M14.2837 42.7926H11.2396C8.92921 42.7926 8.41406 40.7556 8.41406 39.1136H9.76438C9.76438 40.4458 10.1234 41.5844 11.302 41.5844H13.7763C13.9246 41.5844 14.0105 41.5069 14.0105 41.2358C13.9871 40.3296 13.9793 40.1825 13.9636 39.1136H15.3296C15.353 40.1282 15.353 40.8795 15.353 41.7625C15.353 42.4905 14.8534 42.7926 14.2837 42.7926ZM10.4825 37.7737H11.6533V38.8967H10.4825V37.7737ZM12.1372 37.7737H13.3236V38.8967H12.1372V37.7737Z" fill="white"/>
<path d="M16.6723 42.7927L16.6255 36.519H17.9914L18.0461 42.7927H16.6723Z" fill="white"/>
<path d="M20.2078 41.9561L20.2 39.1213H21.5581L21.5972 41.8554C21.5269 43.5129 20.52 44.7212 18.8029 44.8606C18.4048 44.4268 18.3267 44.2874 17.8818 43.8305C18.8809 43.7375 20.2078 43.0637 20.2078 41.9561Z" fill="white"/>
<path d="M24.0795 42.7927C23.4862 42.7927 22.9165 42.3745 22.9087 41.569L22.8696 36.519H24.2278L24.259 41.1507C24.259 41.4218 24.3995 41.5457 24.579 41.5844H25.6873V42.7927H24.0795Z" fill="white"/>
<path d="M29.2544 42.7927C28.7236 42.7927 28.4036 42.4674 28.2475 42.2196C27.9743 42.5836 27.506 42.7927 27.0376 42.7927C26.4913 42.8004 26.0464 42.7927 25.5 42.7927V41.5844H26.6474C26.9128 41.5844 27.2718 41.4295 27.2718 41.0887L27.2484 39.106H28.6143C28.6221 39.6249 28.6221 40.198 28.6377 40.717C28.6455 41.3288 29.0983 41.5767 29.3324 41.5767H30.2612V42.785H29.2544V42.7927ZM26.5615 43.5517H27.7479V44.6825H26.5615V43.5517ZM28.2241 43.5517H29.4105V44.6825H28.2241V43.5517Z" fill="white"/>
<path d="M38.7142 42.7926C38.2615 42.7926 37.9649 42.5448 37.7776 42.3279C37.5122 42.6842 37.0673 42.8469 36.5444 42.8701C36.1307 42.8701 35.6233 42.7926 35.2331 42.3202C34.9365 42.6997 34.4994 42.8546 33.9842 42.8701C33.6798 42.8701 33.3286 42.8236 33.0085 42.6222V42.7926H30.0972V41.5844H31.6426L31.6192 39.3925H33.0007C33.0007 40.2057 32.9929 40.3064 33.0007 40.8098C33.0085 41.4217 33.3598 41.6463 33.7422 41.6463C34.0154 41.6463 34.1793 41.5302 34.1793 41.1894C34.1793 40.6085 34.1715 39.9501 34.1559 39.377H35.5219C35.5297 39.9346 35.5531 40.8021 35.5531 40.8021C35.5531 41.414 35.9121 41.6386 36.2946 41.6386C36.56 41.6386 36.7239 41.5224 36.7239 41.1816C36.7239 40.2677 36.7239 40.1747 36.7005 39.0981L38.082 39.1059C38.082 39.9269 38.082 40.198 38.0898 40.7014V40.7092C38.1132 41.3133 38.5581 41.5689 38.7923 41.5689H39.6353V42.7771H38.7142V42.7926Z" fill="white"/>
<path d="M41.0328 42.7926H39.4873V41.5844H40.6503C40.9469 41.5844 41.1498 41.4372 41.1498 41.1197C41.1498 40.4458 41.1186 37.1851 41.1108 36.5112H42.4923C42.5002 37.6188 42.5236 40.4923 42.5236 41.4372C42.5158 42.2582 42.0006 42.7926 41.0328 42.7926Z" fill="white"/>
<path d="M43.8422 42.7927L43.7876 36.519H45.1613L45.2082 42.7927H43.8422Z" fill="white"/>
<path d="M51.5073 42.7926C51.2341 42.7926 51.0077 42.7074 50.8438 42.5835C50.5784 43.8614 49.5715 44.7367 48.1119 44.8528C47.7139 44.4191 47.6358 44.2797 47.1909 43.8227C48.1978 43.7453 49.5325 43.0714 49.5169 41.9561L49.4857 39.1213H50.8672L50.8906 40.7556C50.8984 41.3442 51.359 41.5921 51.5931 41.5921H52.5298V42.8003H51.5073V42.7926Z" fill="white"/>
<path d="M56.1045 42.7927C55.5737 42.7927 55.2537 42.4674 55.0976 42.2196C54.8244 42.5836 54.3561 42.7927 53.8877 42.7927C53.3414 42.8004 52.8965 42.7927 52.3501 42.7927V41.5844H53.4975C53.7629 41.5844 54.1219 41.4295 54.1219 41.0887L54.0985 39.106H55.4644C55.4722 39.6249 55.4722 40.198 55.4878 40.717C55.4956 41.3288 55.9484 41.5767 56.1825 41.5767H57.1113V42.785H56.1045V42.7927ZM53.4194 43.5517H54.6058V44.6825H53.4194V43.5517ZM55.082 43.5517H56.2684V44.6825H55.082V43.5517Z" fill="white"/>
<path d="M56.9399 42.7927V41.5844H61.3187C61.0924 40.7944 60.4992 40.3219 59.7889 40.3219C58.9537 40.3219 58.4698 40.7557 58.4698 40.7557L57.9312 39.803C58.0951 39.6248 58.7352 39.1292 59.7889 39.1292C61.9119 39.1292 62.7471 41.0887 62.7549 42.8004H56.9399V42.7927ZM59.4142 43.5517H60.6006V44.6593H59.4142V43.5517Z" fill="white"/>
<path d="M63.1918 37.3788C63.145 37.2394 63.0357 37.1774 62.9264 37.1774C62.8172 37.1774 62.7079 37.2548 62.7079 37.3865C62.7079 37.4949 62.7781 37.6499 62.9811 37.6499H63.4728V38.2772H61.5059L61.8181 37.6499H62.1771C62.0756 37.5259 62.0756 37.3478 62.0756 37.3013C62.0756 36.9218 62.3488 36.5965 62.7703 36.5965C63.0435 36.5965 63.2855 36.7049 63.4728 36.9528C63.4884 36.976 63.1918 37.3788 63.1918 37.3788ZM65.2446 42.7927C64.6514 42.7927 64.0816 42.3745 64.0738 41.569L64.0348 36.519H65.3929L65.4241 41.1507C65.4241 41.4218 65.5646 41.5457 65.7441 41.5844H66.8525V42.7927H65.2446Z" fill="white"/>
<path d="M70.4194 42.7926C69.8886 42.7926 69.5686 42.4673 69.4125 42.2195C69.1393 42.5835 68.671 42.7926 68.1949 42.7926C67.6485 42.8004 67.2036 42.7926 66.6572 42.7926V41.5844H67.8046C68.07 41.5844 68.429 41.4294 68.429 41.0887L68.4056 39.1059H69.7715C69.7794 39.6248 69.7793 40.1979 69.795 40.7169C69.8028 41.3288 70.2555 41.5766 70.4896 41.5766H71.4185V42.7849H70.4194V42.7926ZM67.6641 37.2393H68.8505V38.3701H67.6641V37.2393ZM69.3266 38.3701V37.2393H70.513V38.3623L69.3266 38.3701Z" fill="white"/>
<path d="M72.8003 42.7926H71.2549V41.5844H72.4179C72.7145 41.5844 72.9174 41.4372 72.9174 41.1197C72.9174 40.4458 72.8862 37.1851 72.8784 36.5112H74.2599C74.2677 37.6188 74.2911 40.4923 74.2911 41.4372C74.2833 42.2582 73.7682 42.7926 72.8003 42.7926Z" fill="white"/>
<path fill-rule="evenodd" clip-rule="evenodd" d="M26.2494 21.4079C26.5226 20.308 26.5304 19.0456 26.2728 17.6359C26.0387 16.2495 25.3752 15.2581 24.2747 14.6695C23.2444 14.0499 22.5497 13.8252 22.1985 13.9879L20.5594 21.4079H26.2494ZM19.7086 25.4819C18.8656 27.4879 17.7885 28.8356 16.4694 29.5094C14.8381 30.8338 12.4106 31.4457 9.18701 31.3295L11.193 28.2314C12.6682 27.8674 13.8234 27.4259 14.6429 26.9147C15.4547 26.4655 16.1259 25.1643 16.6567 23.0111L19.4822 10.3786C21.9175 10.0688 23.6971 10.0688 24.8211 10.3786L24.8132 10.4251C25.8982 10.5412 26.9753 11.1996 28.0525 12.4156C29.1218 13.6316 29.8165 15.0722 30.1287 16.7375C30.4487 18.3795 30.4955 19.913 30.2614 21.3614H33.4225L32.603 25.0946H21.0745L20.575 21.7409L19.7086 25.4819Z" fill="#003764"/>
<path fill-rule="evenodd" clip-rule="evenodd" d="M69.1474 21.4544H72.1837C72.3788 20.2926 72.4257 19.0843 72.3008 17.8064C72.1681 16.4819 71.6295 15.3743 70.6773 14.4991L69.1474 21.4544ZM65.6038 21.4544L67.1337 14.4991C65.4321 15.6299 64.3237 16.7298 63.8008 17.8064C63.27 18.9062 62.8329 20.1222 62.4817 21.4544H65.6038ZM59.625 19.0998C59.8981 18.3795 60.2182 17.6979 60.5928 17.0396C60.9675 16.389 61.4202 15.7539 61.9509 15.1342C62.4895 14.5146 63.1295 13.864 63.8788 13.1824C63.5354 13.1824 63.1842 13.1902 62.8251 13.2057C62.4661 13.2212 62.0836 13.2444 61.6777 13.2676L64.1442 10.216C67.0712 9.73579 69.3894 9.75128 71.0988 10.2547C72.8081 10.7659 74.0648 11.5869 74.8687 12.7177C75.6727 13.8485 76.1254 15.1885 76.2269 16.7453C76.3283 18.3021 76.2347 19.8976 75.9615 21.5396L75.2122 24.932L73.6589 25.0172H31.9941L32.7825 21.4544H58.8991C59.1098 20.6024 59.3518 19.8201 59.625 19.0998Z" fill="#003764"/>
<path fill-rule="evenodd" clip-rule="evenodd" d="M84.6096 24.9707C84.2037 26.6669 83.1734 28.1927 81.5031 29.5482C79.8718 30.8804 77.46 31.4845 74.2676 31.3761L76.2735 28.2779C77.7487 27.9139 78.9039 27.4724 79.7235 26.9613C80.5509 26.4501 81.1597 25.2108 81.5734 23.228L84.0789 11.8657H87.4976L85.195 22.2986L84.6096 24.9707Z" fill="#003764"/>
<path fill-rule="evenodd" clip-rule="evenodd" d="M105.294 11.7805C107.308 14.0964 107.432 17.0628 106.8 19.9285C106.074 23.2048 104.443 26.1867 101.797 28.3244C98.9559 30.6248 95.1391 31.4535 91.5486 31.4535C89.9485 31.4535 88.3406 31.3915 86.7484 31.2056L85.4995 31.0662L86.3971 27.0077H90.2529L90.331 27.0155C91.0335 27.1084 91.8062 27.1084 92.5165 27.1084C97.5587 27.1084 100.759 24.3666 101.836 19.5258C102.804 15.1962 100.899 13.1979 96.4972 13.1979C95.5762 13.1979 94.6083 13.2521 93.7029 13.4225L93.5936 13.4458H89.3866L90.2764 9.42596L91.0569 9.30978C92.9692 9.03095 94.9049 8.88379 96.8328 8.88379C99.8066 8.89928 103.241 9.41047 105.294 11.7805Z" fill="white"/>
<path d="M91.5487 31.8254C89.7301 31.8254 88.1456 31.7479 86.7094 31.5775L85.0469 31.3839L86.0928 26.636H90.2686L90.3701 26.6515C91.057 26.7445 91.8297 26.7445 92.5088 26.7445C97.3012 26.7445 100.4 24.2195 101.469 19.4484C101.906 17.4966 101.735 16.0173 100.962 15.0646C100.158 14.0732 98.6593 13.5698 96.4895 13.5698C95.4201 13.5698 94.5225 13.6395 93.7654 13.7944L93.6171 13.8254H88.9105L89.9486 9.10848L90.9867 8.96132C92.9537 8.67475 94.9206 8.52759 96.8173 8.52759C98.6281 8.52759 100.158 8.71347 101.5 9.09299C102.312 9.32535 103.054 9.63516 103.702 10.0069C104.42 10.4252 105.052 10.9364 105.567 11.5328C106.551 12.6636 107.167 14.0345 107.401 15.5913C107.596 16.908 107.511 18.3951 107.159 20.0061C106.379 23.5534 104.599 26.5276 102.031 28.6111C100.658 29.7264 98.9794 30.5629 97.0514 31.105C95.3655 31.5852 93.5156 31.8254 91.5487 31.8254ZM85.9523 30.7488L86.7953 30.8417C88.2002 31.0044 89.7535 31.0818 91.5487 31.0818C94.3976 31.0818 98.4564 30.5551 101.563 28.0379C104.006 26.0629 105.692 23.2281 106.433 19.8434C107.159 16.5672 106.675 13.926 105.005 12.013C103.397 10.1618 100.712 9.25564 96.8173 9.25564C94.9518 9.25564 93.0239 9.39506 91.0882 9.68163L90.5652 9.75909L89.8315 13.0818H93.5469L93.6249 13.0663C94.4367 12.9114 95.3733 12.834 96.4895 12.834C97.6681 12.834 98.675 12.9734 99.5023 13.2522C100.369 13.5465 101.048 13.9957 101.539 14.5999C102.008 15.173 102.297 15.8933 102.398 16.7376C102.5 17.5586 102.429 18.5267 102.187 19.6033C101.625 22.1128 100.517 24.0723 98.8857 25.42C97.2232 26.7909 95.0767 27.4803 92.501 27.4803C91.8297 27.4803 91.0023 27.4803 90.2608 27.3796L90.2062 27.3718H86.6782L85.9523 30.7488Z" fill="#003764"/>
<path fill-rule="evenodd" clip-rule="evenodd" d="M156.77 15.6223C157.753 15.0104 158.877 14.6618 160.15 14.6618C161.679 14.6618 162.936 15.3357 163.631 16.4897C163.951 16.2032 164.286 15.9398 164.645 15.7152C165.762 14.9949 166.878 14.6618 168.22 14.6618C169.477 14.6618 170.687 15.1343 171.475 16.1257C172.638 17.5818 172.529 19.6575 172.154 21.3693L170.32 29.6954H166.136L167.994 21.2763C168.134 20.6334 168.376 19.1773 167.814 18.6507C167.588 18.4415 167.237 18.3951 166.94 18.3951C165.918 18.3951 164.942 19.2316 164.466 20.068C164.31 20.3469 164.185 20.6799 164.115 20.9897L162.195 29.6877H158.011L159.962 20.8426C160.181 19.8434 160.313 18.3873 158.916 18.3873C157.816 18.3873 156.762 19.3555 156.27 20.2617L156.263 20.2849L156.247 20.3081C156.083 20.5715 155.982 20.8813 155.919 21.1834L154.046 29.6954H149.862L152.18 19.1696C152.43 18.031 152.664 16.8847 152.836 15.7384L152.945 14.9639H156.887L156.77 15.6223ZM144.281 29.1068C143.251 29.6799 142.08 29.9975 140.909 29.9975C138.068 29.9975 136.242 27.9682 136.851 25.1877C137.764 21.0285 142.08 19.797 145.881 19.6808C146.006 18.7204 145.679 18.2247 144.398 18.2247C143.345 18.2247 142.158 18.5577 141.245 19.0689L140.059 19.735L139.614 16.2419L140.145 15.9398C141.612 15.1111 143.446 14.6696 145.132 14.6696C149.3 14.6696 150.627 17.3727 149.808 21.0594L148.738 25.8925C148.527 26.8374 148.325 27.8675 148.293 28.8279L148.262 29.7032H144.211L144.281 29.1068ZM129.295 15.568C129.381 15.5216 129.467 15.4751 129.553 15.4364C130.474 14.9794 131.496 14.6696 132.534 14.6696C133.799 14.6696 135.055 15.1111 135.906 16.0637C137.179 17.4889 137.139 19.5414 136.757 21.2995L134.907 29.7032H130.669L132.55 21.1756C132.831 19.9054 132.956 18.4261 131.278 18.4261C130.091 18.4261 128.936 19.309 128.382 20.3081L128.366 20.3314L128.351 20.3546C128.195 20.5947 128.124 20.9045 128.062 21.1834L126.189 29.6954H121.95L126.532 8.92261H130.77L129.295 15.568ZM119.968 15.6068C120.819 15.0336 121.802 14.6696 122.848 14.6696C123.16 14.6696 123.433 14.7006 123.738 14.778L124.581 15.0026L123.707 18.9682L122.809 18.7591C122.614 18.7126 122.426 18.7049 122.224 18.7049C120.803 18.7049 119.718 19.9286 119.234 21.1524C119.109 21.4622 119 21.7797 118.93 22.1051L117.252 29.7109H113.037L115.238 19.7195C115.527 18.4028 115.808 17.0784 116.011 15.7462L116.128 14.9794H120.085L119.968 15.6068ZM106.738 29.7032L109.985 14.9639H114.223L110.976 29.7032H106.738ZM115.058 12.4002C114.816 13.6937 113.645 14.5844 112.334 14.5844C110.906 14.5844 110.032 13.3994 110.336 12.0439C110.609 10.797 111.741 9.85978 113.029 9.85978C114.496 9.85978 115.363 11.0371 115.058 12.4002ZM145.195 23.1119C143.501 23.1894 141.432 23.6154 141.066 25.2961C140.894 26.0629 141.105 26.4424 141.909 26.4424C143.072 26.4424 144.172 25.7453 144.742 24.7462C144.828 24.599 144.906 24.4131 144.945 24.2505L145.195 23.1119Z" fill="#003764"/>
</g>
<defs>
<clipPath id="clip0_2_155">
<rect width="192.073" height="45" fill="white"/>
</clipPath>
</defs>
</svg>
