<svg xmlns="http://www.w3.org/2000/svg" shape-rendering="geometricPrecision" text-rendering="geometricPrecision" image-rendering="optimizeQuality" fill-rule="evenodd" clip-rule="evenodd" viewBox="0 0 512 296.937"><path fill="#427D2A" d="M55.708 0H512v253.196l-32.271.146 2.253-185.798.085-2.218c.02-16.411-13.278-29.735-29.69-29.754l-396.669-.156V0z"/><path fill="#427D2A" d="M0 60.064h456.298v236.873H0z"/><path fill="#87CC71" d="M380.858 96.615c-.242 17.619 15.287 33.558 33.564 33.777v93.72c-19.253-.241-35.188 15.287-35.407 36.278H75.44c.242-19.253-15.29-35.191-33.564-35.41v-93.721c19.326.22 35.274-15.299 35.493-34.644h303.489z"/><path fill="#427D2A" d="M221.349 106.353h13.603c39.684 0 72.15 32.466 72.15 72.153 0 39.684-32.479 72.147-72.15 72.147h-13.603c-39.671 0-72.15-32.463-72.15-72.147 0-39.687 32.466-72.153 72.15-72.153z"/><path fill="#fff" fill-rule="nonzero" d="M205.933 208.827c-.246.915-.593 1.584-1.016 2.019-.303.302-.783.563-1.433.767l-9.123 2.783c.564-1.059 1.044-1.782 1.464-2.189.42-.39 1.145-.783 2.174-1.173-.798-.51-1.361-.971-1.709-1.409-.363-.435-.537-.87-.537-1.29 0-.363.117-.782.333-1.247.233-.465.521-.927.884-1.376 1.841-2.453 3.656-3.671 5.452-3.671.537 0 .959.174 1.292.522.318.363.477.812.477 1.379 0 .45-.057.84-.186 1.161-.131.333-.393.809-.785 1.463-1.392-.695-2.349-1.043-2.855-1.043-.507 0-1.002.128-1.509.378a3.824 3.824 0 00-.929.68c0 .378.684.942 2.03 1.712 1.35.768 2.336 1.146 2.915 1.146.378 0 1.394-.204 3.061-.612zm.087-26.973c0 2.524-.306 4.831-.899 6.918-.609 2.09-1.769 4.887-3.494 8.396l-2.567-1.044c.696-3.625 1.044-6.57 1.044-8.846 0-1.724-.147-4.264-.423-7.599a216.295 216.295 0 00-1.07-9.934c-.423-3.263-1.119-7.179-2.091-11.704-.332-1.593-.506-2.681-.506-3.275 0-.872.435-2.366 1.319-4.483.87-2.117 2.102-4.669 3.682-7.671l2.582 15.054c.957 5.727 1.611 10.688 1.988 14.88.288 3.232.435 6.336.435 9.308zm9.296 24.799v-11.92h11.92v11.92h-11.92zm46.622-12.442h-19.273c-1.869 0-3.308-.396-4.306-1.19-1.218-.972-1.83-2.552-1.83-4.726 0-1.263.073-2.612.204-4.049.129-1.448.318-2.914.579-4.392l1.743-.087c.23 1.001.725 1.724 1.508 2.189.768.449 1.709.683 2.813.683h14.558c-.65-4.177-1.784-7.5-3.391-9.995-1.335-2.072-3.191-3.856-5.569-5.364l3.089-13.269c3.652 2.755 6.249 6.294 7.772 10.63 1.407 4.003 2.103 9.314 2.103 15.908v13.662z"/></svg>